<!-- https://getwaves.io/ -->
<svg xmlns="http://www.w3.org/2000/svg" viewBox="0 0 1440 320">
    <path fill="#D8EADB" fill-opacity="0.4" d="M0,32L26.7,53.3C53.3,75,107,117,160,154.7C213.3,192,267,224,320,202.7C373.3,181,427,107,480,80C533.3,53,587,75,640,96C693.3,117,747,139,800,165.3C853.3,192,907,224,960,234.7C1013.3,245,1067,235,1120,213.3C1173.3,192,1227,160,1280,144C1333.3,128,1387,128,1413,128L1440,128L1440,320L1413.3,320C1386.7,320,1333,320,1280,320C1226.7,320,1173,320,1120,320C1066.7,320,1013,320,960,320C906.7,320,853,320,800,320C746.7,320,693,320,640,320C586.7,320,533,320,480,320C426.7,320,373,320,320,320C266.7,320,213,320,160,320C106.7,320,53,320,27,320L0,320Z"></path>
</svg>