<svg xmlns="http://www.w3.org/2000/svg" viewBox="0 0 1440 320">
    <path fill="#D8EADB" fill-opacity="0.4" d="M0,32L26.7,48C53.3,64,107,96,160,106.7C213.3,117,267,107,320,96C373.3,85,427,75,480,101.3C533.3,128,587,192,640,224C693.3,256,747,256,800,250.7C853.3,245,907,235,960,197.3C1013.3,160,1067,96,1120,101.3C1173.3,107,1227,181,1280,176C1333.3,171,1387,85,1413,42.7L1440,0L1440,320L1413.3,320C1386.7,320,1333,320,1280,320C1226.7,320,1173,320,1120,320C1066.7,320,1013,320,960,320C906.7,320,853,320,800,320C746.7,320,693,320,640,320C586.7,320,533,320,480,320C426.7,320,373,320,320,320C266.7,320,213,320,160,320C106.7,320,53,320,27,320L0,320Z"></path>
</svg>