<svg xmlns="http://www.w3.org/2000/svg" viewBox="0 0 1440 320">
    <path fill="#D8EADB" fill-opacity="0.4" d="M0,128L20,144C40,160,80,192,120,186.7C160,181,200,139,240,112C280,85,320,75,360,106.7C400,139,440,213,480,208C520,203,560,117,600,101.3C640,85,680,139,720,133.3C760,128,800,64,840,69.3C880,75,920,149,960,170.7C1000,192,1040,160,1080,149.3C1120,139,1160,149,1200,133.3C1240,117,1280,75,1320,74.7C1360,75,1400,117,1420,138.7L1440,160L1440,320L1420,320C1400,320,1360,320,1320,320C1280,320,1240,320,1200,320C1160,320,1120,320,1080,320C1040,320,1000,320,960,320C920,320,880,320,840,320C800,320,760,320,720,320C680,320,640,320,600,320C560,320,520,320,480,320C440,320,400,320,360,320C320,320,280,320,240,320C200,320,160,320,120,320C80,320,40,320,20,320L0,320Z"></path>
</svg>