<svg xmlns="http://www.w3.org/2000/svg" viewBox="0 0 1440 320">
    <path fill="#D8EADB" fill-opacity="0.4" d="M0,128L26.7,106.7C53.3,85,107,43,160,48C213.3,53,267,107,320,133.3C373.3,160,427,160,480,170.7C533.3,181,587,203,640,176C693.3,149,747,75,800,42.7C853.3,11,907,21,960,58.7C1013.3,96,1067,160,1120,165.3C1173.3,171,1227,117,1280,96C1333.3,75,1387,85,1413,90.7L1440,96L1440,320L1413.3,320C1386.7,320,1333,320,1280,320C1226.7,320,1173,320,1120,320C1066.7,320,1013,320,960,320C906.7,320,853,320,800,320C746.7,320,693,320,640,320C586.7,320,533,320,480,320C426.7,320,373,320,320,320C266.7,320,213,320,160,320C106.7,320,53,320,27,320L0,320Z"></path>
</svg>