<!-- https://getwaves.io/ -->
<svg xmlns="http://www.w3.org/2000/svg" viewBox="0 0 1440 320">
    <path fill="#D8EADB" fill-opacity="0.4" d="M0,32L26.7,26.7C53.3,21,107,11,160,58.7C213.3,107,267,213,320,250.7C373.3,288,427,256,480,213.3C533.3,171,587,117,640,85.3C693.3,53,747,43,800,64C853.3,85,907,139,960,176C1013.3,213,1067,235,1120,218.7C1173.3,203,1227,149,1280,133.3C1333.3,117,1387,139,1413,149.3L1440,160L1440,320L1413.3,320C1386.7,320,1333,320,1280,320C1226.7,320,1173,320,1120,320C1066.7,320,1013,320,960,320C906.7,320,853,320,800,320C746.7,320,693,320,640,320C586.7,320,533,320,480,320C426.7,320,373,320,320,320C266.7,320,213,320,160,320C106.7,320,53,320,27,320L0,320Z"></path>
</svg>