<svg xmlns="http://www.w3.org/2000/svg" viewBox="0 0 1440 320">
    <path fill="#D8EADB" fill-opacity="0.4" d="M0,32L20,74.7C40,117,80,203,120,240C160,277,200,267,240,256C280,245,320,235,360,197.3C400,160,440,96,480,112C520,128,560,224,600,218.7C640,213,680,107,720,74.7C760,43,800,85,840,96C880,107,920,85,960,112C1000,139,1040,213,1080,218.7C1120,224,1160,160,1200,117.3C1240,75,1280,53,1320,58.7C1360,64,1400,96,1420,112L1440,128L1440,320L1420,320C1400,320,1360,320,1320,320C1280,320,1240,320,1200,320C1160,320,1120,320,1080,320C1040,320,1000,320,960,320C920,320,880,320,840,320C800,320,760,320,720,320C680,320,640,320,600,320C560,320,520,320,480,320C440,320,400,320,360,320C320,320,280,320,240,320C200,320,160,320,120,320C80,320,40,320,20,320L0,320Z"></path>
</svg>