<svg xmlns="http://www.w3.org/2000/svg" viewBox="0 0 1440 320">
    <path fill="#D8EADB" fill-opacity="0.4" d="M0,256L20,245.3C40,235,80,213,120,181.3C160,149,200,107,240,112C280,117,320,171,360,176C400,181,440,139,480,154.7C520,171,560,245,600,277.3C640,309,680,299,720,288C760,277,800,267,840,261.3C880,256,920,256,960,261.3C1000,267,1040,277,1080,250.7C1120,224,1160,160,1200,165.3C1240,171,1280,245,1320,245.3C1360,245,1400,171,1420,133.3L1440,96L1440,320L1420,320C1400,320,1360,320,1320,320C1280,320,1240,320,1200,320C1160,320,1120,320,1080,320C1040,320,1000,320,960,320C920,320,880,320,840,320C800,320,760,320,720,320C680,320,640,320,600,320C560,320,520,320,480,320C440,320,400,320,360,320C320,320,280,320,240,320C200,320,160,320,120,320C80,320,40,320,20,320L0,320Z"></path>
</svg>